<?xml version="1.0" encoding="UTF-8" standalone="no"?>
<!-- Created with Inkscape (http://www.inkscape.org/) -->

<svg
   xmlns:dc="http://purl.org/dc/elements/1.1/"
   xmlns:cc="http://creativecommons.org/ns#"
   xmlns:rdf="http://www.w3.org/1999/02/22-rdf-syntax-ns#"
   xmlns:svg="http://www.w3.org/2000/svg"
   xmlns="http://www.w3.org/2000/svg"
   xmlns:sodipodi="http://sodipodi.sourceforge.net/DTD/sodipodi-0.dtd"
   xmlns:inkscape="http://www.inkscape.org/namespaces/inkscape"
   width="999.99994"
   height="1000.0608"
   id="svg6096"
   version="1.1"
   inkscape:version="0.48.2 r9819"
   sodipodi:docname="CNET.svg">
  <defs
     id="defs6098" />
  <sodipodi:namedview
     id="base"
     pagecolor="#ffffff"
     bordercolor="#666666"
     borderopacity="1.0"
     inkscape:pageopacity="0.0"
     inkscape:pageshadow="2"
     inkscape:zoom="0.49497475"
     inkscape:cx="1291.3774"
     inkscape:cy="533.5758"
     inkscape:document-units="px"
     inkscape:current-layer="layer1"
     showgrid="false"
     fit-margin-left="0.5"
     fit-margin-bottom="0.5"
     fit-margin-top="0.5"
     fit-margin-right="0.5"
     inkscape:window-width="1920"
     inkscape:window-height="1028"
     inkscape:window-x="-8"
     inkscape:window-y="-8"
     inkscape:window-maximized="1" />
  <metadata
     id="metadata6101">
    <rdf:RDF>
      <cc:Work
         rdf:about="">
        <dc:format>image/svg+xml</dc:format>
        <dc:type
           rdf:resource="http://purl.org/dc/dcmitype/StillImage" />
        <dc:title></dc:title>
      </cc:Work>
    </rdf:RDF>
  </metadata>
  <g
     inkscape:label="Layer 1"
     inkscape:groupmode="layer"
     id="layer1"
     transform="translate(-662.98884,487.82846)">
    <path
       d="m 1162.9787,511.73236 c 275.8882,0 499.5101,-223.60164 499.5101,-499.489863 0,-275.928767 -223.6219,-499.570957 -499.5101,-499.570957 -275.90849,0 -499.48986,223.64219 -499.48986,499.570957 0,275.888223 223.58137,499.489863 499.48986,499.489863"
       style="fill:#cc0001;fill-opacity:1;fill-rule:nonzero;stroke:none"
       id="path4887"
       inkscape:connector-curvature="0" />
    <path
       d="m 974.51185,310.53346 34.79015,0 0,-567.18466 -34.79015,0 0,567.18466 z"
       style="fill:#ffffff;fill-opacity:1;fill-rule:nonzero;stroke:none"
       id="path4889"
       inkscape:connector-curvature="0" />
    <path
       d="m 974.51185,310.53346 34.79015,0 0,-567.18466 -34.79015,0 0,567.18466 z"
       style="fill:#ffffff;fill-opacity:1;fill-rule:nonzero;stroke:none"
       id="path4891"
       inkscape:connector-curvature="0" />
    <path
       d="m 831.74254,-50.039147 c 0.60822,-36.148493 62.56548,-37.182466 62.56548,-1.743561 l 0.56767,30.735342 47.36,0 0,-28.383562 c 3.06137,-94.983562 -159.69808,-94.841642 -158.4411,-2.35178 l 0,163.469038 c -1.25698,92.48987 161.54302,94.82137 158.64384,0 l 0,-34.303559 -48.13041,0 0,36.635069 c 0,35.52 -61.85589,36.0674 -62.48439,0 l 0,-165.800548 -0.0811,1.743561"
       style="fill:#ffffff;fill-opacity:1;fill-rule:nonzero;stroke:none"
       id="path4893"
       inkscape:connector-curvature="0" />
    <path
       d="m 1102.319,-86.998599 c 0,0 8.2718,-12.265753 29.9446,-24.267941 27.4713,-15.22576 54.3546,-0.0649 50.462,-1.74357 21.6526,9.54905 29.8432,32.803292 31.3841,58.733703 l 0,193.515067 30.4717,0 0,35.52 -78.3589,0 -0.049,-231.285478 c 0,-33.73589 -56.9091,-32.681644 -57.4565,1.58137 l 0.065,-1.58137 0,231.285478 -70.3101,0 0,-35.60109 22.3014,0.0811 0,-216.708492 -26.4576,-0.162192 0,-35.378086 67.8165,0 0.1832,26.011511"
       style="fill:#ffffff;fill-opacity:1;fill-rule:nonzero;stroke:none"
       id="path4895"
       inkscape:connector-curvature="0" />
    <path
       d="m 1457.2757,110.89565 c 1.5003,25.93041 9.6909,49.20493 31.3436,58.79452 -4.0548,-1.86521 10.5424,5.41315 25.5857,5.27123 7.9069,-0.20274 46.103,-0.16219 46.103,-0.16219 l 0,-35.56055 c 0,0 -19.2603,-0.24329 -29.5189,-0.16219 -13.0362,0.16219 -24.2882,-6.02137 -25.2411,-24.34904 l 0.1298,-192.014796 -0.1298,-0.345469 46.2449,0 0,-34.810415 -46.3868,0 0.2644,-0.56767 0,-74.4663 -48.394,0 0,298.37206"
       style="fill:#ffffff;fill-opacity:1;fill-rule:nonzero;stroke:none"
       id="path4897"
       inkscape:connector-curvature="0" />
    <path
       d="m 1370.1584,77.382771 0,36.635069 c 0,35.52 -61.8761,36.0674 -62.5249,0 l 0,-76.270685 101.674,0.06488 c 4.8049,0 8.7786,-3.93315 8.7786,-8.819178 l 0,-78.419726 c 2.9803,-94.983561 -159.6778,-94.841651 -158.4005,-2.351781 l 0,163.46904 c -1.2765,92.48986 161.543,94.82137 158.5627,0 l 0,-34.30356 -48.0899,0 z m -62.5249,-129.408767 c 0.8304,-35.499726 62.5249,-35.195617 62.5249,0.243288 l -0.1459,53.4624653 -62.3831,0.032438 0,-53.7463013"
       style="fill:#ffffff;fill-opacity:1;fill-rule:nonzero;stroke:none"
       id="path4899"
       inkscape:connector-curvature="0" />
  </g>
</svg>
