<?xml version="1.0" encoding="UTF-8"?>
<svg width="37px" height="37px" viewBox="0 0 37 37" version="1.1" xmlns="http://www.w3.org/2000/svg" xmlns:xlink="http://www.w3.org/1999/xlink">
    <!-- Generator: sketchtool 50.2 (55047) - http://www.bohemiancoding.com/sketch -->
    <title>FD1900B9-2F87-40BE-8291-9657113689AB</title>
    <desc>Created with sketchtool.</desc>
    <defs></defs>
    <g id="Page-1" stroke="none" stroke-width="1" fill="none" fill-rule="evenodd">
        <g id="Cost-&amp;-Plans_More-accessories" transform="translate(-293.000000, -1256.000000)" fill="#1181FF">
            <g id="Plans" transform="translate(0.000000, 314.000000)">
                <g id="Accessories" transform="translate(0.000000, 861.000000)">
                    <g id="Items" transform="translate(0.000000, 41.000000)">
                        <g id="Item-Copy" transform="translate(278.000000, 40.000000)">
                            <path d="M34.4166667,17.5833333 L34.4166667,13 L32.5833333,13 L32.5833333,17.5833333 L28,17.5833333 L28,19.4166667 L32.5833333,19.4166667 L32.5833333,24 L34.4166667,24 L34.4166667,19.4166667 L39,19.4166667 L39,17.5833333 L34.4166667,17.5833333 Z M33.5,37 C23.2827321,37 15,28.7172679 15,18.5 C15,8.28273213 23.2827321,0 33.5,0 C43.7172679,0 52,8.28273213 52,18.5 C52,28.7172679 43.7172679,37 33.5,37 Z" id="Combined-Shape"></path>
                        </g>
                    </g>
                </g>
            </g>
        </g>
    </g>
</svg>