<?xml version="1.0" encoding="UTF-8"?>
<svg width="93px" height="171px" viewBox="0 0 93 171" version="1.1" xmlns="http://www.w3.org/2000/svg" xmlns:xlink="http://www.w3.org/1999/xlink">
    <!-- Generator: sketchtool 50.2 (55047) - http://www.bohemiancoding.com/sketch -->
    <title>E30D9B4F-38FB-473C-B075-5BCF2F0A75EC</title>
    <desc>Created with sketchtool.</desc>
    <defs></defs>
    <g id="Page-1" stroke="none" stroke-width="1" fill="none" fill-rule="evenodd">
        <g id="Onboarding-1-Copy-2" transform="translate(-216.000000, -180.000000)" fill="#FFFFFF" fill-rule="nonzero">
            <g id="Illustration" transform="translate(66.000000, 180.000000)">
                <path d="M158,10 C156.343146,10 155,11.3431458 155,13 L155,159 C155,160.656854 156.343146,162 158,162 L235,162 C236.656854,162 238,160.656854 238,159 L238,13 C238,11.3431458 236.656854,10 235,10 L158,10 Z M158,0 L235,0 C239.418278,-8.11624501e-16 243,3.581722 243,8 L243,163 C243,167.418278 239.418278,171 235,171 L158,171 C153.581722,171 150,167.418278 150,163 L150,8 C150,3.581722 153.581722,8.11624501e-16 158,0 Z M202.5,7 C203.328427,7 204,6.32842712 204,5.5 C204,4.67157288 203.328427,4 202.5,4 C201.671573,4 201,4.67157288 201,5.5 C201,6.32842712 201.671573,7 202.5,7 Z M196.5,8 C197.880712,8 199,6.88071187 199,5.5 C199,4.11928813 197.880712,3 196.5,3 C195.119288,3 194,4.11928813 194,5.5 C194,6.88071187 195.119288,8 196.5,8 Z M181.5,165 C180.671573,165 180,165.671573 180,166.5 C180,167.328427 180.671573,168 181.5,168 L210.5,168 C211.328427,168 212,167.328427 212,166.5 C212,165.671573 211.328427,165 210.5,165 L181.5,165 Z" id="Combined-Shape"></path>
            </g>
        </g>
    </g>
</svg>