<?xml version="1.0" encoding="UTF-8"?>
<svg width="22px" height="18px" viewBox="0 0 22 18" version="1.1" xmlns="http://www.w3.org/2000/svg" xmlns:xlink="http://www.w3.org/1999/xlink">
    <!-- Generator: sketchtool 50.2 (55047) - http://www.bohemiancoding.com/sketch -->
    <title>7CF2CD6F-E6C6-4CD5-8B6C-F24150C7B087</title>
    <desc>Created with sketchtool.</desc>
    <defs></defs>
    <g id="Page-1" stroke="none" stroke-width="1" fill="none" fill-rule="evenodd">
        <g id="Product-Details" transform="translate(-224.000000, -1870.000000)" fill-rule="nonzero">
            <g id="Nav-bar" transform="translate(0.000000, 1854.000000)">
                <g id="Menu">
                    <g id="Exclusive-VOD" transform="translate(188.000000, 16.000000)">
                        <g id="Group-15" transform="translate(36.000000, 0.000000)">
                            <g id="Group-16">
                                <path d="M8,4.80424764 L8,11.1957524 C8,11.7480371 8.44771525,12.1957524 9,12.1957524 C9.18741972,12.1957524 9.37106734,12.1430829 9.52999894,12.0437507 L14.6432027,8.8479983 C15.1115392,8.55528797 15.2539124,7.93833759 14.9612021,7.47000106 C14.8807214,7.34123193 14.7719718,7.2324824 14.6432027,7.1520017 L9.52999894,3.95624934 C9.06166241,3.66353901 8.44471203,3.80591217 8.1520017,4.2742487 C8.05266944,4.4331803 8,4.61682792 8,4.80424764 Z" id="Shape" fill="#3E3F42"></path>
                                <g id="ic_personal_video_24px" fill="#111111">
                                    <path d="M20,0 L2,0 C0.89,0 0,0.89 0,2 L0,14 C0,15.1 0.89,16 2,16 L7,16 L7,18 L15,18 L15,16 L20,16 C21.1,16 21.99,15.1 21.99,14 L22,2 C22,0.89 21.1,0 20,0 Z M21,15 L1,15 L1,1 L21,1 L21,15 Z" id="Shape"></path>
                                </g>
                            </g>
                        </g>
                    </g>
                </g>
            </g>
        </g>
    </g>
</svg>