<?xml version="1.0" encoding="UTF-8"?>
<svg width="48px" height="48px" viewBox="0 0 48 48" version="1.1" xmlns="http://www.w3.org/2000/svg" xmlns:xlink="http://www.w3.org/1999/xlink">
    <!-- Generator: sketchtool 50.2 (55047) - http://www.bohemiancoding.com/sketch -->
    <title>AC3CEF9E-483E-416C-AA48-99C8443EFDF4</title>
    <desc>Created with sketchtool.</desc>
    <defs></defs>
    <g id="Page-1" stroke="none" stroke-width="1" fill="none" fill-rule="evenodd">
        <g id="Splash-Screen" transform="translate(-84.000000, -309.000000)" fill="#FFFFFF" fill-rule="nonzero">
            <g id="AT&amp;T_logo_2016" transform="translate(84.000000, 307.000000)">
                <path d="M9.0203136,44.9611741 C13.145675,48.1087926 18.3237083,50 23.9416271,50 C30.0894913,50 35.6941556,47.750218 39.9715893,44.0571553 C40.0234241,44.0120127 39.9978617,43.9821509 39.946737,44.0120127 C38.027312,45.2755394 32.5567318,48.0336716 23.9418638,48.0336716 C16.4551713,48.0336716 11.7238875,46.3871909 9.05202985,44.917198 C9.00090514,44.892352 8.98197007,44.9301458 9.0203136,44.9611741 M25.2953248,46 C31.1996934,46 37.6878709,44.4498236 41.568338,41.3812768 C42.6302329,40.5452177 43.6417169,39.4324579 44.5475949,37.9370147 C45.0690903,37.0765673 45.5791499,36.0542803 45.9945725,35.0494136 C46.0130097,35.0004121 45.9816197,34.9765857 45.9433448,35.0316562 C42.3347694,40.1462381 31.8851407,43.3363894 21.0953556,43.3363894 C13.4687335,43.3363894 5.26262028,40.987467 2.04986328,36.5023738 C2.01823981,36.4609024 1.98661635,36.4786598 2.00587049,36.5263126 C4.99878025,42.6530665 14.0785646,46 25.2953248,46 M19.1760715,35.9509418 C6.89269378,35.9509418 1.10082801,30.2399158 0.050191501,26.3425705 C0.0372350903,26.2861734 0,26.2985248 0,26.3492123 C0,27.6612615 0.131548422,29.3544574 0.357877075,30.4783219 C0.465847164,31.0253974 0.911851176,31.883939 1.56574138,32.5682787 C4.54011308,35.6632464 11.9556155,40 24.7981032,40 C42.2954441,40 46.2961736,34.1815398 47.1131278,32.2681154 C47.6973336,30.8996691 48,28.4267012 48,26.3493289 C48,25.8466486 47.9873938,25.4451103 47.9683677,25.0509129 C47.9683677,24.9869418 47.9312493,24.9816982 47.9184096,25.0440381 C47.044027,29.7260493 32.0945468,35.9509418 19.1760715,35.9509418 M2.7766797,15.3229576 C2.07003849,16.7608396 1.28675658,19.1866272 1.05390482,20.4421156 C0.951834427,20.9800447 0.995311026,21.2383757 1.17929555,21.6398099 C2.65738273,24.8552492 10.1338343,30 27.5734582,30 C38.2129202,30 46.4779271,27.3199667 47.8169126,22.4293414 C48.0634753,21.529028 48.0767175,20.5784903 47.7599594,19.2976494 C47.4060529,17.8663759 46.7432398,16.1973177 46.1822628,15.0253363 C46.1637472,14.9871273 46.1310518,14.9927746 46.1377315,15.0379524 C46.3460911,21.45249 28.8995531,25.5866261 20.0967723,25.5866261 C10.5618034,25.5866261 2.60699206,21.6914761 2.60699206,16.7730953 C2.60699206,16.3005299 2.70238276,15.8278444 2.82144536,15.3359342 C2.8333985,15.2909966 2.79589847,15.2835471 2.7766797,15.3229576 M39.0806916,8.37075087 C39.1802882,8.5283851 39.2299712,8.69661365 39.2299712,8.92305277 C39.2299712,11.581646 31.1733718,16.2848273 18.3483573,16.2848273 C8.92495677,16.2848273 7.16069164,12.7542397 7.16069164,10.5089416 C7.16069164,9.70633422 7.4654755,8.88509948 8.1367147,8.05105841 C8.17337176,8.00146301 8.14224784,7.98236994 8.09994236,8.01927544 C6.87573487,9.06706572 5.75089337,10.2460626 4.76414986,11.5187786 C4.29268012,12.1206759 4,12.6538847 4,12.9733443 C4,17.6263481 15.5522767,21 26.3540058,21 C37.8634006,21 43,17.2053693 43,13.8706021 C43,12.6787988 42.540634,11.9830661 41.3655331,10.6342107 C40.6027666,9.75674457 39.881268,9.04226802 39.1175793,8.3389679 C39.0806916,8.30823272 39.0549856,8.33326326 39.0806916,8.37075087 M36.5459177,5.53498018 C32.9313571,3.28185422 28.7339201,2 24.2087399,2 C19.6520052,2 15.3281162,3.32662397 11.700535,5.63940226 C10.6124366,6.3358341 10,6.89393108 10,7.61134492 C10,9.72613602 14.7525126,12 23.1841022,12 C31.528184,12 38,9.50936261 38,7.11192437 C38,6.53967673 37.5190596,6.13931077 36.5459177,5.53498018" id="path9"></path>
            </g>
        </g>
    </g>
</svg>