<?xml version="1.0" encoding="UTF-8"?>
<svg width="12px" height="10px" viewBox="0 0 12 10" version="1.1" xmlns="http://www.w3.org/2000/svg" xmlns:xlink="http://www.w3.org/1999/xlink">
    <!-- Generator: sketchtool 50.2 (55047) - http://www.bohemiancoding.com/sketch -->
    <title>8788884A-9C47-4CA1-AB17-1695FD157948</title>
    <desc>Created with sketchtool.</desc>
    <defs></defs>
    <g id="Page-1" stroke="none" stroke-width="1" fill="none" fill-rule="evenodd">
        <g id="Product-Details" transform="translate(-132.000000, -177.000000)" fill="#AEBECD" fill-rule="nonzero">
            <g id="Slider" transform="translate(10.000000, 125.000000)">
                <g id="Slide-1">
                    <g id="Group-11" transform="translate(122.000000, 14.000000)">
                        <g id="Group-3" transform="translate(0.000000, 36.000000)">
                            <g id="ic_storage_24px" transform="translate(0.000000, 2.000000)">
                                <path d="M0,9.6 L12,9.6 L12,7.2 L0,7.2 L0,9.6 Z M1.2,7.8 L2.4,7.8 L2.4,9 L1.2,9 L1.2,7.8 Z M0,0 L0,2.4 L12,2.4 L12,0 L0,0 Z M2.4,1.8 L1.2,1.8 L1.2,0.6 L2.4,0.6 L2.4,1.8 Z M0,6 L12,6 L12,3.6 L0,3.6 L0,6 Z M1.2,4.2 L2.4,4.2 L2.4,5.4 L1.2,5.4 L1.2,4.2 Z" id="Shape"></path>
                            </g>
                        </g>
                    </g>
                </g>
            </g>
        </g>
    </g>
</svg>