<?xml version="1.0" encoding="utf-8"?>
<!-- Generator: Adobe Illustrator 22.1.0, SVG Export Plug-In . SVG Version: 6.00 Build 0)  -->
<svg version="1.1" id="Layer_1" xmlns="http://www.w3.org/2000/svg" xmlns:xlink="http://www.w3.org/1999/xlink" x="0px" y="0px"
	 viewBox="0 0 270 180" style="enable-background:new 0 0 270 180;" xml:space="preserve">
<style type="text/css">
	.st0{fill:#FFFFFF;}
</style>
<path class="st0" d="M0,166.9V13.1C0,5.9,5.9,0,13.2,0h243.6c7.3,0,13.2,5.9,13.2,13.1V144c0,7.2-5.9,13.1-13.2,13.1h-74.3
	c-1.9,0-3.7,0.8-5,2.1l-19.1,19.5c-0.8,0.8-2,1.3-3.2,1.3H134c-2.8,0-5-2.2-5-5v-1.1c0-2.8-2.3-5.1-5.1-5.1h-15.1
	c-0.8,0-1.6,0.3-2.2,0.8l-10.2,9.1c-0.9,0.8-2.1,1.2-3.3,1.2h-80C5.9,180,0,174.1,0,166.9z"/>
</svg>
