<?xml version="1.0" encoding="utf-8"?>
<!-- Generator: Adobe Illustrator 22.1.0, SVG Export Plug-In . SVG Version: 6.00 Build 0)  -->
<svg version="1.1" id="Layer_1" xmlns="http://www.w3.org/2000/svg" xmlns:xlink="http://www.w3.org/1999/xlink" x="0px" y="0px"
	 viewBox="0 0 127.6 125" style="enable-background:new 0 0 127.6 125;" xml:space="preserve">
<style type="text/css">
	.st0{fill:#FFFFFF;}
	.st1{fill:#060606;}
</style>
<g>
	<g>
		<path class="st0" d="M43.6,67.5c-4.7,1.6-9,3-13.3,4.6c-4.8,1.9-9.1,4.5-12.7,8.2c-6.6,6.9-6.7,14.8,0.1,21.7
			c6.7,6.8,15.4,10,24.5,12c18,4,35.8,3.4,53.2-3c5.2-1.9,10.1-4.6,14.1-8.5c7.2-7.1,7.2-15.7-0.1-22.7c-6.3-6.1-14.3-8.9-22.5-11.2
			c-0.9-0.2-1.8-0.5-2.6-0.8c-0.3-0.1-0.4-0.4-0.7-0.7c0.5-2.5,2.1-3.7,4.6-3.1c10.4,2.3,20.5,5.5,29.2,12.1
			c13.6,10.3,13.7,23.7,0.2,34.1c-10.3,7.9-22.4,11.4-35,13.2c-20.3,3-40.3,1.7-59.5-5.9c-6.1-2.4-11.7-5.6-16.3-10.2
			c-8.8-8.9-8.9-19.3,0.1-28c8.9-8.7,20.4-12.4,32.2-15.1C41.1,63.7,42.7,64.9,43.6,67.5z"/>
		<path class="st0" d="M78.4,44.1c0.1,6-0.1,11.8-3.3,17.4c-2.9,5.1-3.2,11.2-4.1,16.9c-0.2,1.2-0.2,2.3,0.9,3.3
			c2.8,2.7,1.2,4.8-1.5,6.1c-4.2,2.1-8.7,2.1-12.9,0.1c-2.9-1.3-4.7-3.3-1.8-6.3c0.9-1,0.8-1.9,0.6-3c-1.3-6.6-1.2-13.5-5.4-19.3
			c-1.6-2.2-2-5.1-2-7.9c0-4.2,0-8.3,0-12.5c0-8,2-10.4,9.8-11.8c1.8-0.3,3.7-0.4,5.5-0.3c11.2,0.1,14.2,3.1,14.2,14.1
			C78.4,41.9,78.4,43,78.4,44.1z"/>
		<path class="st0" d="M64.9,103.1c-10.2,0-18.9-1.4-26.9-6.1c-5.8-3.4-8.5-8.2-7.5-12.6c1-4.5,8.1-10.8,12.9-11.6
			c1.9-0.3,2.9,0.6,3.6,2.1c0.8,1.7-0.1,2.5-1.5,3.3c-7.1,3.8-7.1,10.5,1.5,14.2c11.9,5.2,23.9,5,35.8,0c3.2-1.3,6.2-3.4,6.3-7.3
			c0.1-4.1-3.1-6-6.4-7.7c-0.7-0.3-1.4-0.6-2.1-0.9c-1.1-0.5-2.4-1-1.8-2.7c0.5-1.5,1.4-2.4,3.1-1.9c5.6,1.8,11,4.2,14,9.7
			c2.3,4.1,1.3,8.7-2.8,12.4c-6.1,5.5-13.7,7.4-21.5,8.5C69.1,103,66.4,103,64.9,103.1z"/>
		<path class="st0" d="M63.3,24c-6.7,0-12-5.5-11.9-12.1c0.1-6.6,5.7-12,12.2-11.9C70,0.1,75.3,5.6,75.3,12C75.4,18.6,70,24,63.3,24
			z"/>
	</g>
</g>
</svg>
