<?xml version="1.0" encoding="UTF-8"?>
<svg width="86px" height="164px" viewBox="0 0 86 164" version="1.1" xmlns="http://www.w3.org/2000/svg" xmlns:xlink="http://www.w3.org/1999/xlink">
    <!-- Generator: sketchtool 50.2 (55047) - http://www.bohemiancoding.com/sketch -->
    <title>ED98848E-45B6-4EB8-9AA2-0D643A32DC92</title>
    <desc>Created with sketchtool.</desc>
    <defs></defs>
    <g id="Page-1" stroke="none" stroke-width="1" fill="none" fill-rule="evenodd">
        <g id="Onboarding-1-Copy-2" transform="translate(-66.000000, -184.000000)" fill="#FFFFFF" fill-rule="nonzero">
            <g id="Illustration" transform="translate(66.000000, 180.000000)">
                <g id="Phone" transform="translate(0.000000, 4.000000)">
                    <path d="M8,3 C5.23857625,3 3,5.23857625 3,8 L3,156 C3,158.761424 5.23857625,161 8,161 L78,161 C80.7614237,161 83,158.761424 83,156 L83,8 C83,5.23857625 80.7614237,3 78,3 L8,3 Z M8,0 L78,0 C82.418278,-8.11624501e-16 86,3.581722 86,8 L86,156 C86,160.418278 82.418278,164 78,164 L8,164 C3.581722,164 5.41083001e-16,160.418278 0,156 L0,8 C-5.41083001e-16,3.581722 3.581722,8.11624501e-16 8,0 Z M26,2 L60,2 L60,4.5132009 C60,6.07335869 59.8375552,6.63910961 59.5325178,7.20947998 C59.2274804,7.77985035 58.7798504,8.22748036 58.20948,8.53251777 C57.6391096,8.83755518 57.0733587,9 55.5132009,9 L30.4867991,9 C28.9266413,9 28.3608904,8.83755518 27.79052,8.53251777 C27.2201496,8.22748036 26.7725196,7.77985035 26.4674822,7.20947998 C26.1624448,6.63910961 26,6.07335869 26,4.5132009 L26,2 Z" id="Combined-Shape"></path>
                </g>
            </g>
        </g>
    </g>
</svg>