<?xml version="1.0" encoding="UTF-8"?>
<svg width="23px" height="18px" viewBox="0 0 23 18" version="1.1" xmlns="http://www.w3.org/2000/svg" xmlns:xlink="http://www.w3.org/1999/xlink">
    <!-- Generator: sketchtool 50.2 (55047) - http://www.bohemiancoding.com/sketch -->
    <title>B529D6C5-5A4D-4297-AF21-EFCBEA3FE551</title>
    <desc>Created with sketchtool.</desc>
    <defs></defs>
    <g id="Page-1" stroke="none" stroke-width="1" fill="none" fill-rule="evenodd">
        <g id="Product-Details" transform="translate(-36.000000, -1867.000000)">
            <g id="Nav-bar" transform="translate(0.000000, 1854.000000)">
                <g id="Menu">
                    <g id="Products">
                        <g id="Group-8" transform="translate(0.000000, 13.000000)">
                            <g id="Group-2" transform="translate(36.000000, 0.000000)">
                                <g id="Group-12">
                                    <g id="Group-13">
                                        <path d="M15,2.5 C14.1715729,2.5 13.5,3.17157288 13.5,4 L13.5,14 C13.5,14.8284271 14.1715729,15.5 15,15.5 L21,15.5 C21.8284271,15.5 22.5,14.8284271 22.5,14 L22.5,4 C22.5,3.17157288 21.8284271,2.5 21,2.5 L15,2.5 Z" id="Rectangle-3-Copy" stroke="#FFFFFF"></path>
                                        <path d="M2,2.5 C1.17157288,2.5 0.5,3.17157288 0.5,4 L0.5,14 C0.5,14.8284271 1.17157288,15.5 2,15.5 L8,15.5 C8.82842712,15.5 9.5,14.8284271 9.5,14 L9.5,4 C9.5,3.17157288 8.82842712,2.5 8,2.5 L2,2.5 Z" id="Rectangle-3-Copy-2" stroke="#FFFFFF"></path>
                                        <rect id="Rectangle-7-Copy" fill="#FFFFFF" x="2" y="13" width="5" height="1" rx="0.5"></rect>
                                        <rect id="Rectangle-7-Copy-2" fill="#FFFFFF" x="16" y="13" width="5" height="1" rx="0.5"></rect>
                                        <path d="M7,0.5 C6.17157288,0.5 5.5,1.17157288 5.5,2 L5.5,16 C5.5,16.8284271 6.17157288,17.5 7,17.5 L15.8571429,17.5 C16.68557,17.5 17.3571429,16.8284271 17.3571429,16 L17.3571429,2 C17.3571429,1.17157288 16.68557,0.5 15.8571429,0.5 L7,0.5 Z" id="Rectangle-3" stroke="#1181FF" fill="#FFFFFF"></path>
                                        <rect id="Rectangle-7" fill="#1181FF" x="9" y="15" width="5" height="1" rx="0.5"></rect>
                                    </g>
                                </g>
                            </g>
                        </g>
                    </g>
                </g>
            </g>
        </g>
    </g>
</svg>