<?xml version="1.0" encoding="UTF-8"?>
<svg width="18px" height="13px" viewBox="0 0 18 13" version="1.1" xmlns="http://www.w3.org/2000/svg" xmlns:xlink="http://www.w3.org/1999/xlink">
    <!-- Generator: sketchtool 50.2 (55047) - http://www.bohemiancoding.com/sketch -->
    <title>A95EDD7D-6CBA-4C06-82D9-B96DF4FA6312</title>
    <desc>Created with sketchtool.</desc>
    <defs></defs>
    <g id="Page-1" stroke="none" stroke-width="1" fill="none" fill-rule="evenodd">
        <g id="Cost-&amp;-Plans" transform="translate(-16.000000, -744.000000)" fill="#1181FF" fill-rule="nonzero">
            <g id="Plans" transform="translate(0.000000, 314.000000)">
                <g id="Shipping" transform="translate(16.000000, 427.000000)">
                    <g id="ic_local_shipping_24px" transform="translate(0.000000, 3.000000)">
                        <path d="M15.5454545,3.25 L13.0909091,3.25 L13.0909091,0 L1.63636364,0 C0.736363636,0 0,0.73125 0,1.625 L0,10.5625 L1.63636364,10.5625 C1.63636364,11.91125 2.73272727,13 4.09090909,13 C5.44909091,13 6.54545455,11.91125 6.54545455,10.5625 L11.4545455,10.5625 C11.4545455,11.91125 12.5509091,13 13.9090909,13 C15.2672727,13 16.3636364,11.91125 16.3636364,10.5625 L18,10.5625 L18,6.5 L15.5454545,3.25 Z M4.09090909,11.78125 C3.41181818,11.78125 2.86363636,11.236875 2.86363636,10.5625 C2.86363636,9.888125 3.41181818,9.34375 4.09090909,9.34375 C4.77,9.34375 5.31818182,9.888125 5.31818182,10.5625 C5.31818182,11.236875 4.77,11.78125 4.09090909,11.78125 Z M15.1363636,4.46875 L16.74,6.5 L13.0909091,6.5 L13.0909091,4.46875 L15.1363636,4.46875 Z M13.9090909,11.78125 C13.23,11.78125 12.6818182,11.236875 12.6818182,10.5625 C12.6818182,9.888125 13.23,9.34375 13.9090909,9.34375 C14.5881818,9.34375 15.1363636,9.888125 15.1363636,10.5625 C15.1363636,11.236875 14.5881818,11.78125 13.9090909,11.78125 Z" id="Shape"></path>
                    </g>
                </g>
            </g>
        </g>
    </g>
</svg>