<?xml version="1.0" encoding="UTF-8"?>
<svg width="27px" height="43px" viewBox="0 0 27 43" version="1.1" xmlns="http://www.w3.org/2000/svg" xmlns:xlink="http://www.w3.org/1999/xlink">
    <!-- Generator: sketchtool 50.2 (55047) - http://www.bohemiancoding.com/sketch -->
    <title>065E1D88-D97F-4DF5-AE25-30EF67A2BAB7</title>
    <desc>Created with sketchtool.</desc>
    <defs></defs>
    <g id="Page-1" stroke="none" stroke-width="1" fill="none" fill-rule="evenodd">
        <g id="Onboarding-1-Copy-2" transform="translate(-172.000000, -245.000000)" fill="#AEBECD">
            <g id="Illustration" transform="translate(66.000000, 180.000000)">
                <path d="M117.474345,82.5347222 C117.538041,82.4226846 117.617659,82.3310189 117.713203,82.2597222 C117.808746,82.1884256 117.946751,82.1527778 118.127222,82.1527778 L118.827871,82.1527778 C118.923414,82.1527778 119.000379,82.1807868 119.058767,82.2368056 C119.117154,82.2928244 119.146348,82.3615737 119.146348,82.4430556 C119.146348,82.504167 119.125116,82.57037 119.082652,82.6416667 L113.525234,92.2361111 C113.419074,92.4296306 113.283723,92.5798606 113.119176,92.6868056 C112.954629,92.7937505 112.766199,92.8472222 112.55388,92.8472222 L111.964698,92.8472222 C111.752379,92.8472222 111.587835,92.7937505 111.471059,92.6868056 C111.354284,92.5798606 111.285281,92.4296306 111.264049,92.2361111 L110.006066,82.6416667 C109.984834,82.5194438 110.019336,82.4074079 110.109571,82.3055556 C110.199807,82.2037032 110.308619,82.1527778 110.43601,82.1527778 L110.945573,82.1527778 C111.264051,82.1527778 111.444519,82.2953689 111.486983,82.5805556 L112.585728,91.0444444 L117.474345,82.5347222 Z M128,84.7652778 C128,84.8569449 127.952229,84.9358793 127.856685,85.0020833 C127.761142,85.0682874 127.6656,85.1013889 127.570056,85.1013889 L126.917179,85.1013889 C126.789788,85.1013889 126.699554,85.0784725 126.646474,85.0326389 C126.593394,84.9868053 126.545623,84.8976858 126.503159,84.7652778 C126.407616,84.4495355 126.187338,84.1388904 125.84232,83.8333333 C125.497302,83.5277762 125.016938,83.375 124.401213,83.375 C123.636865,83.375 123.013188,83.5099524 122.530163,83.7798611 C122.047137,84.0497699 121.747241,84.4444418 121.630466,84.9638889 C121.609234,85.0351855 121.598618,85.1370364 121.598618,85.2694444 C121.598618,85.5444458 121.699468,85.7710639 121.901171,85.9493056 C122.102874,86.1275472 122.397462,86.2879622 122.784944,86.4305556 C123.172426,86.5731489 123.748332,86.7462953 124.51268,86.95 C125.468115,87.2046309 126.166103,87.5305536 126.606664,87.9277778 C127.047226,88.325002 127.267504,88.813886 127.267504,89.3944444 C127.267504,89.5675935 127.240964,89.7814802 127.187884,90.0361111 C126.975566,90.9629676 126.455392,91.6886548 125.627349,92.2131944 C124.799305,92.7377341 123.711187,93 122.362962,93 C121.577383,93 120.895318,92.8574088 120.31675,92.5722222 C119.738181,92.2870356 119.297626,91.9254652 118.995071,91.4875 C118.692517,91.0495348 118.551858,90.6064837 118.57309,90.1583333 C118.57309,90.0666662 118.620861,89.9877318 118.716404,89.9215278 C118.811948,89.8553237 118.90749,89.8222222 119.003033,89.8222222 L119.65591,89.8222222 C119.772686,89.8222222 119.86292,89.8451387 119.926616,89.8909722 C119.990311,89.9368058 120.038082,90.0259253 120.06993,90.1583333 C120.154858,90.5250018 120.383097,90.8611096 120.754655,91.1666667 C121.126213,91.4722237 121.66231,91.625 122.362962,91.625 C123.265318,91.625 124.01373,91.4696775 124.608223,91.1590278 C125.202716,90.8483781 125.558345,90.4231508 125.67512,89.8833333 C125.696352,89.781481 125.706968,89.7050928 125.706968,89.6541667 C125.706968,89.3995358 125.60081,89.185649 125.388491,89.0125 C125.176172,88.839351 124.8922,88.6865747 124.536566,88.5541667 C124.180932,88.4217586 123.663412,88.2537047 122.983992,88.05 L122.39481,87.8666667 C120.855498,87.3981458 120.085854,86.5986168 120.085854,85.4680556 C120.085854,85.2847213 120.112393,85.0759271 120.165473,84.8416667 C120.345944,84.0166625 120.797115,83.3368082 121.518999,82.8020833 C122.240883,82.2673584 123.201612,82 124.401213,82 C125.197409,82 125.866203,82.15023 126.407616,82.4506944 C126.94903,82.7511589 127.349775,83.1152756 127.609866,83.5430556 C127.869957,83.9708355 128,84.3782388 128,84.7652778 Z M131.316987,65.0323776 L132.183013,65.5323776 L123.661274,80.2924628 L122.795248,79.7924628 L131.316987,65.0323776 Z M115.338726,92.7075372 L116.204752,93.2075372 L107.683013,107.967622 L106.816987,107.467622 L115.338726,92.7075372 Z" id="Combined-Shape"></path>
            </g>
        </g>
    </g>
</svg>