<?xml version="1.0" encoding="UTF-8"?>
<svg width="45px" height="26px" viewBox="0 0 45 26" version="1.1" xmlns="http://www.w3.org/2000/svg" xmlns:xlink="http://www.w3.org/1999/xlink">
    <!-- Generator: sketchtool 50.2 (55047) - http://www.bohemiancoding.com/sketch -->
    <title>1DC24B27-AF00-4B1C-9998-E0994E69B737</title>
    <desc>Created with sketchtool.</desc>
    <defs></defs>
    <g id="Page-1" stroke="none" stroke-width="1" fill="none" fill-rule="evenodd">
        <g id="Product-Details" transform="translate(-186.000000, -1445.000000)" fill="#AEBECD" fill-rule="nonzero">
            <g id="Tabs" transform="translate(0.000000, 271.000000)">
                <g id="Specs" transform="translate(10.000000, 149.000000)">
                    <g id="Performance-Copy-2" transform="translate(0.000000, 883.000000)">
                        <g id="Processor" transform="translate(0.000000, 33.000000)">
                            <g id="Battery-Life">
                                <g id="Group-20" transform="translate(15.000000, 101.000000)">
                                    <g id="Group-19" transform="translate(161.000000, 0.000000)">
                                        <g id="if_wireless-charging-1_1504701">
                                            <g id="Filled_Icons_1_-Copy" transform="translate(0.000000, 8.333333)">
                                                <g id="Group">
                                                    <path d="M30.4163124,9.16761132 L24.2013124,9.16761132 L25.8146457,1.09727799 C25.898979,0.677444653 25.6808124,0.255777987 25.2903124,0.0816113199 C24.903479,-0.0980553467 24.441479,0.0284446533 24.182979,0.36761132 L13.182979,15.034278 C12.9758124,15.3111113 12.940979,15.683278 13.0968124,15.9931113 C13.2526457,16.304778 13.5698124,16.5009447 13.9163124,16.5009447 L20.1313124,16.5009447 L18.517979,24.571278 C18.4336457,24.9911113 18.6518124,25.412778 19.0423124,25.5869447 C19.161479,25.6419447 19.2916457,25.6676113 19.4163124,25.6676113 C19.6968124,25.6676113 19.9718124,25.5374447 20.1496457,25.3009447 L31.1496457,10.634278 C31.3568124,10.3574447 31.3916457,9.98527799 31.2358124,9.67544465 C31.079979,9.36377799 30.7646457,9.16761132 30.4163124,9.16761132 Z" id="Shape"></path>
                                                    <path d="M36.6675559,13.5796531 C36.6675559,11.8361531 35.8663892,10.2338198 34.4730559,9.1833198 C34.0715559,8.88265314 33.4958892,8.9578198 33.1897226,9.3648198 C32.8853892,9.76998647 32.9660559,10.3438198 33.3712226,10.6481531 C34.3007226,11.3484865 34.8342226,12.4173198 34.8342226,13.5796531 C34.8342226,14.7438198 34.2988892,15.8144865 33.3675559,16.5148198 C32.9605559,16.8173198 32.8798892,17.3911531 33.1842226,17.7963198 C33.3638892,18.0364865 33.6388892,18.1629865 33.9157226,18.1629865 C34.1063892,18.1629865 34.3007226,18.1043198 34.4657226,17.9778198 C35.8462226,16.9456531 36.6675559,15.3011531 36.6675559,13.5796531 Z" id="Shape"></path>
                                                    <path d="M40.4173956,13.3086939 C40.4173956,9.80336057 38.4648956,6.65552723 35.326229,5.0971939 C34.8788956,4.86986057 34.3215623,5.05502723 34.0978956,5.5096939 C33.8723956,5.96252723 34.0575623,6.51436057 34.5103956,6.73802723 C37.0220623,7.98652723 38.5840623,10.5055272 38.5840623,13.3086939 C38.5840623,16.1118606 37.0220623,18.6308606 34.5085623,19.8811939 C34.055729,20.1048606 33.8705623,20.6566939 34.0960623,21.1095272 C34.2555623,21.4321939 34.5800623,21.6173606 34.9155623,21.6173606 C35.0530623,21.6173606 35.1923956,21.5861939 35.3243956,21.5201939 C38.4648956,19.9618606 40.4173956,16.8140272 40.4173956,13.3086939 Z" id="Shape"></path>
                                                    <path d="M36.2678476,1.07173296 C35.8058476,0.87556629 35.2650143,1.09556629 35.0706809,1.56306629 C34.8763476,2.03056629 35.0963476,2.56589962 35.5638476,2.76023296 C39.6705143,4.47989962 42.3251809,8.46373296 42.3251809,12.9168996 C42.3251809,17.3700663 39.6705143,21.355733 35.5638476,23.071733 C35.0963476,23.2660663 34.8763476,23.8013996 35.0706809,24.2688996 C35.2173476,24.6208996 35.5583476,24.8335663 35.9158476,24.8335663 C36.0331809,24.8335663 36.1541809,24.809733 36.2678476,24.7620663 C41.0601809,22.7600663 44.1585143,18.110733 44.1585143,12.9168996 C44.1585143,7.72306629 41.0601809,3.07373296 36.2678476,1.07173296 Z" id="Shape"></path>
                                                    <path d="M8.83333333,13.5814865 C8.83333333,12.4191531 9.36683333,11.3503198 10.2981667,10.6481531 C10.7033333,10.3438198 10.784,9.76998647 10.4796667,9.3648198 C10.1735,8.9578198 9.596,8.88265314 9.19633333,9.1833198 C7.80116667,10.2356531 7,11.8379865 7,13.5814865 C7,15.3029865 7.82133333,16.9474865 9.2,17.9796531 C9.365,18.1061531 9.55933333,18.1648198 9.75,18.1648198 C10.0268333,18.1648198 10.3036667,18.0383198 10.4815,17.7981531 C10.7858333,17.3929865 10.7051667,16.8191531 10.2981667,16.5166531 C9.36866667,15.8163198 8.83333333,14.7456531 8.83333333,13.5814865 Z" id="Shape"></path>
                                                    <path d="M9.90883333,19.8826993 C7.39533333,18.632366 5.83333333,16.113366 5.83333333,13.3101993 C5.83333333,10.5070326 7.39533333,7.98803262 9.90883333,6.73769929 C10.3616667,6.51403262 10.545,5.96219929 10.3195,5.50936595 C10.0958333,5.05653262 9.5385,4.86953262 9.09116667,5.09686595 C5.9525,6.65703262 4,9.80486595 4,13.3101993 C4,16.8155326 5.9525,19.963366 9.09116667,21.5216993 C9.22316667,21.5895326 9.3625,21.618866 9.5,21.618866 C9.83733333,21.618866 10.16,21.4336993 10.3195,21.1110326 C10.545,20.6581993 10.3616667,20.106366 9.90883333,19.8826993 Z" id="Shape"></path>
                                                    <path d="M8.59466667,23.0693829 C4.488,21.3533829 1.83333333,17.3677162 1.83333333,12.9145495 C1.83333333,8.46138286 4.488,4.47754953 8.59466667,2.75971619 C9.06216667,2.56538286 9.28216667,2.03004953 9.086,1.56254953 C8.8935,1.09321619 8.35266667,0.87688286 7.88883333,1.07121619 C3.0965,3.07138286 0,7.72071619 0,12.9145495 C0,18.1083829 3.0965,22.7577162 7.89066667,24.7597162 C8.00433333,24.8073829 8.12533333,24.8312162 8.24266667,24.8312162 C8.60016667,24.8312162 8.94116667,24.6203829 9.08783333,24.2665495 C9.28216667,23.8008829 9.06216667,23.2655495 8.59466667,23.0693829 Z" id="Shape"></path>
                                                </g>
                                            </g>
                                        </g>
                                    </g>
                                </g>
                            </g>
                        </g>
                    </g>
                </g>
            </g>
        </g>
    </g>
</svg>