<?xml version="1.0" encoding="UTF-8"?>
<svg width="34px" height="34px" viewBox="0 0 34 34" version="1.1" xmlns="http://www.w3.org/2000/svg" xmlns:xlink="http://www.w3.org/1999/xlink">
    <!-- Generator: sketchtool 50.2 (55047) - http://www.bohemiancoding.com/sketch -->
    <title>C6D1EAC9-E727-40F0-88B5-0EB2E02A3C96</title>
    <desc>Created with sketchtool.</desc>
    <defs></defs>
    <g id="Page-1" stroke="none" stroke-width="1" fill="none" fill-rule="evenodd">
        <g id="Product-Details" transform="translate(-25.000000, -1442.000000)" fill="#AEBECD" fill-rule="nonzero">
            <g id="Tabs" transform="translate(0.000000, 271.000000)">
                <g id="Specs" transform="translate(10.000000, 149.000000)">
                    <g id="Performance-Copy-2" transform="translate(0.000000, 883.000000)">
                        <g id="Processor" transform="translate(0.000000, 33.000000)">
                            <g id="Battery-Life">
                                <g id="Group-20" transform="translate(15.000000, 101.000000)">
                                    <g id="wired_charging" transform="translate(0.000000, 5.000000)">
                                        <g id="if_lightning-usb_1_1504705">
                                            <g id="Filled_Icons_1_">
                                                <g id="Group">
                                                    <path d="M12.7084915,10.9146307 L16.9584915,10.9146307 L16.9584915,15.8729641 C16.9584915,16.1718807 17.1454915,16.4367974 17.4259915,16.5387974 C17.5039081,16.5671307 17.5860748,16.5812974 17.6668248,16.5812974 C17.8736581,16.5812974 18.0734081,16.4906307 18.2108248,16.3262974 L25.2941581,7.82629741 C25.4698248,7.61521408 25.5080748,7.32196408 25.3904915,7.07263075 C25.2757415,6.82329741 25.0249915,6.66463075 24.7501581,6.66463075 L19.7918248,6.66463075 L19.7918248,1.70629741 C19.7918248,1.40171408 19.5963248,1.13113075 19.3073248,1.03338075 C19.0183248,0.944130748 18.6995748,1.03621408 18.5168248,1.28129741 L12.1418248,9.78129741 C11.9803248,9.99663075 11.9548248,10.2842141 12.0752415,10.5236307 C12.1956581,10.7630474 12.4407415,10.9146307 12.7084915,10.9146307 Z" id="Shape"></path>
                                                    <path d="M33.2916667,7.83333333 L27.625,7.83333333 C27.234,7.83333333 26.9166667,8.15066667 26.9166667,8.54166667 L26.9166667,15.625 C26.9166667,16.016 27.234,16.3333333 27.625,16.3333333 L29.75,16.3333333 L29.75,19.875 C29.75,24.2085833 27.4394167,28.00525 23.9940833,30.126 C24.9361667,28.83825 25.5,27.2558333 25.5,25.5416667 C25.5,21.2463333 22.0050833,17.75 17.7083333,17.75 C13.4115833,17.75 9.91666667,21.2463333 9.91666667,25.5416667 C9.91666667,27.2558333 10.4805,28.83825 11.4225833,30.126 C7.97583333,28.00525 5.66666667,24.2085833 5.66666667,19.875 L5.66666667,16.3333333 L9.20833333,16.3333333 C9.59933333,16.3333333 9.91666667,16.016 9.91666667,15.625 L9.91666667,5.70833333 C9.91666667,5.31733333 9.59933333,5 9.20833333,5 L0.708333333,5 C0.317333333,5 0,5.31733333 0,5.70833333 L0,15.625 C0,16.016 0.317333333,16.3333333 0.708333333,16.3333333 L4.25,16.3333333 L4.25,19.875 C4.25,27.35925 10.3841667,33.3333333 17.7083333,33.3333333 C25.0310833,33.3333333 31.1666667,27.3620833 31.1666667,19.875 L31.1666667,16.3333333 L33.2916667,16.3333333 C33.6826667,16.3333333 34,16.016 34,15.625 L34,8.54166667 C34,8.15066667 33.6826667,7.83333333 33.2916667,7.83333333 Z M11.3333333,25.5416667 C11.3333333,22.0269167 14.1935833,19.1666667 17.7083333,19.1666667 C21.2230833,19.1666667 24.0833333,22.0269167 24.0833333,25.5416667 C24.0833333,29.0564167 21.2230833,31.9166667 17.7083333,31.9166667 C14.1935833,31.9166667 11.3333333,29.0564167 11.3333333,25.5416667 Z" id="Shape"></path>
                                                    <path d="M8.08333333,0.708333333 C8.08333333,0.317333333 7.766,0 7.375,0 L1.70833333,0 C1.31733333,0 1,0.317333333 1,0.708333333 L1,4.25 L8.08333333,4.25 L8.08333333,0.708333333 Z" id="Shape"></path>
                                                    <path d="M32.25,4.70833333 C32.25,4.31733333 31.9326667,4 31.5416667,4 L28.7083333,4 C28.3173333,4 28,4.31733333 28,4.70833333 L28,6.83333333 L32.25,6.83333333 L32.25,4.70833333 Z" id="Shape"></path>
                                                </g>
                                            </g>
                                        </g>
                                    </g>
                                </g>
                            </g>
                        </g>
                    </g>
                </g>
            </g>
        </g>
    </g>
</svg>